<?xml version="1.0" encoding="iso-8859-1"?>
<!-- Generator: Adobe Illustrator 19.0.0, SVG Export Plug-In . SVG Version: 6.00 Build 0)  -->
<svg xmlns="http://www.w3.org/2000/svg" xmlns:xlink="http://www.w3.org/1999/xlink" version="1.1" id="Capa_1" x="0px" y="0px" viewBox="0 0 418.088 418.088" style="enable-background:new 0 0 418.088 418.088;" xml:space="preserve" width="512px" height="512px">
<path id="XMLID_30_" d="M67.338,50.572c0,3.866-3.134,7-7,7h-1.972c-3.866,0-7-3.134-7-7s3.134-7,7-7h1.972  C64.204,43.572,67.338,46.706,67.338,50.572z M378.131,364.096c5.978,10.604,2.215,24.093-8.388,30.07  c-0.014,0.008-0.027,0.016-0.041,0.023c-3.328,1.867-7.006,2.819-10.733,2.819c-2.001,0-4.015-0.273-5.997-0.827  c-5.69-1.589-10.414-5.283-13.3-10.403l-18.36-32.563l-15.441,8.706c-2.177,1.227-4.846,1.201-6.997-0.07  c-2.153-1.271-3.464-3.595-3.44-6.095l0.766-79.689c0.024-2.502,1.383-4.802,3.563-6.03c2.179-1.229,4.85-1.2,7.003,0.074  l68.579,40.595c2.151,1.273,3.461,3.598,3.435,6.098s-1.385,4.796-3.563,6.023l-15.442,8.706L378.131,364.096z M365.936,370.971  L344.14,332.31c-0.912-1.617-1.144-3.53-0.645-5.318c0.498-1.788,1.688-3.305,3.305-4.217l10.986-6.193l-47.705-28.238  l-0.532,55.433l10.984-6.193c1.086-0.612,2.267-0.903,3.431-0.903c2.445,0,4.818,1.282,6.104,3.563l21.799,38.661  c1.051,1.864,2.779,3.211,4.869,3.795c2.088,0.583,4.266,0.326,6.129-0.726c0.009-0.005,0.018-0.01,0.026-0.015  c1.853-1.052,3.191-2.775,3.771-4.854C367.245,375.014,366.987,372.836,365.936,370.971z M301.008,255.677h25.626  c3.866,0,7-3.134,7-7s-3.134-7-7-7h-25.626c-3.866,0-7,3.134-7,7S297.142,255.677,301.008,255.677z M34.227,43.572h-1.971  c-3.866,0-7,3.134-7,7s3.134,7,7,7h1.971c3.866,0,7-3.134,7-7S38.093,43.572,34.227,43.572z M380.899,241.677h-25.626  c-3.866,0-7,3.134-7,7s3.134,7,7,7h25.626c3.866,0,7-3.134,7-7S384.766,241.677,380.899,241.677z M86.448,43.572h-1.971  c-3.866,0-7,3.134-7,7s3.134,7,7,7h1.971c3.866,0,7-3.134,7-7S90.314,43.572,86.448,43.572z M138.211,241.677c-3.866,0-7,3.134-7,7  s3.134,7,7,7h25.623c3.866,0,7-3.134,7-7s-3.134-7-7-7H138.211z M192.476,241.677c-3.866,0-7,3.134-7,7s3.134,7,7,7h25.626  c3.866,0,7-3.134,7-7s-3.134-7-7-7H192.476z M89.767,104.946v136.73h19.802c3.866,0,7,3.134,7,7s-3.134,7-7,7H89.767v28.199  c0,3.866-3.134,7-7,7H39.432c-3.866,0-7-3.134-7-7v-178.93c0-3.866,3.134-7,7-7h43.335C86.633,97.946,89.767,101.08,89.767,104.946z   M75.767,111.946H46.432v164.93h29.335V111.946z M259.555,159.957c3.866,0,7-3.134,7-7v-25.626c0-3.866-3.134-7-7-7s-7,3.134-7,7  v25.626C252.555,156.823,255.688,159.957,259.555,159.957z M259.555,268.49c3.866,0,7-3.134,7-7v-5.813h5.813c3.866,0,7-3.134,7-7  s-3.134-7-7-7h-5.813v-5.813c0-3.866-3.134-7-7-7s-7,3.134-7,7v5.813h-5.813c-3.866,0-7,3.134-7,7s3.134,7,7,7h5.813v5.813  C252.555,265.356,255.688,268.49,259.555,268.49z M252.555,207.224c0,3.866,3.134,7,7,7s7-3.134,7-7v-25.626c0-3.866-3.134-7-7-7  s-7,3.134-7,7V207.224z M418.088,40.705v262.424c0,10.822-8.805,19.626-19.627,19.626c-3.866,0-7-3.134-7-7s3.134-7,7-7  c3.103,0,5.627-2.523,5.627-5.626V80.065H266.555v18.626c0,3.866-3.134,7-7,7s-7-3.134-7-7V80.065H14v223.063  c0,3.103,2.523,5.626,5.626,5.626h232.929V290.13c0-3.866,3.134-7,7-7s7,3.134,7,7v18.625h8.288c3.866,0,7,3.134,7,7s-3.134,7-7,7  H19.626C8.805,322.755,0,313.951,0,303.129V40.705c0-10.822,8.805-19.626,19.626-19.626h378.835  C409.283,21.079,418.088,29.883,418.088,40.705z M404.088,40.705c0-3.103-2.524-5.626-5.627-5.626H19.626  c-3.103,0-5.626,2.523-5.626,5.626v25.36h245.555h144.533V40.705z" fill="#be9a66"/>
<g>
</g>
<g>
</g>
<g>
</g>
<g>
</g>
<g>
</g>
<g>
</g>
<g>
</g>
<g>
</g>
<g>
</g>
<g>
</g>
<g>
</g>
<g>
</g>
<g>
</g>
<g>
</g>
<g>
</g>
</svg>
