<?xml version="1.0" encoding="iso-8859-1"?>
<!-- Generator: Adobe Illustrator 19.0.0, SVG Export Plug-In . SVG Version: 6.00 Build 0)  -->
<svg xmlns="http://www.w3.org/2000/svg" xmlns:xlink="http://www.w3.org/1999/xlink" version="1.1" id="Layer_1" x="0px" y="0px" viewBox="0 0 512 512" style="enable-background:new 0 0 512 512;" xml:space="preserve" width="512px" height="512px">
<g>
	<g>
		<path d="M468.32,53.08H43.68C19.595,53.08,0,72.675,0,96.76V415.24c0,24.085,19.595,43.68,43.68,43.68H468.32    c24.085,0,43.68-19.595,43.68-43.68V96.76C512,72.675,492.405,53.08,468.32,53.08z M495.413,415.24    c0,14.939-12.154,27.093-27.093,27.093H43.68c-14.939,0-27.093-12.154-27.093-27.093V140.441h478.825V415.24z M495.413,123.853    H16.587V96.76c0-14.939,12.154-27.093,27.093-27.093H468.32c14.939,0,27.093,12.154,27.093,27.093V123.853z" fill="#be9a66"/>
	</g>
</g>
<g>
	<g>
		<path d="M61.374,88.467h-8.847c-4.58,0-8.294,3.713-8.294,8.294c0,4.58,3.713,8.294,8.294,8.294h8.847    c4.58,0,8.294-3.713,8.294-8.294C69.667,92.18,65.954,88.467,61.374,88.467z" fill="#be9a66"/>
	</g>
</g>
<g>
	<g>
		<path d="M96.76,88.467h-8.847c-4.58,0-8.294,3.713-8.294,8.294c0,4.58,3.713,8.294,8.294,8.294h8.847    c4.58,0,8.294-3.713,8.294-8.294C105.054,92.18,101.341,88.467,96.76,88.467z" fill="#be9a66"/>
	</g>
</g>
<g>
	<g>
		<path d="M132.147,88.467H123.3c-4.58,0-8.294,3.713-8.294,8.294c0,4.58,3.713,8.294,8.294,8.294h8.847    c4.58,0,8.294-3.713,8.294-8.294C140.441,92.18,136.727,88.467,132.147,88.467z" fill="#be9a66"/>
	</g>
</g>
<g>
	<g>
		<path d="M459.473,212.32H139.076c-3.47-10.273-13.193-17.693-24.622-17.693s-21.152,7.42-24.622,17.693H52.527    c-4.58,0-8.294,3.713-8.294,8.294c0,4.58,3.713,8.294,8.294,8.294h37.304c3.47,10.273,13.193,17.693,24.622,17.693    s21.152-7.42,24.622-17.693h320.397c4.58,0,8.294-3.713,8.294-8.294C467.767,216.033,464.053,212.32,459.473,212.32z     M114.454,230.013c-5.183,0-9.4-4.217-9.4-9.4c0-5.183,4.216-9.4,9.4-9.4s9.4,4.217,9.4,9.4    C123.853,225.796,119.637,230.013,114.454,230.013z" fill="#be9a66"/>
	</g>
</g>
<g>
	<g>
		<path d="M459.473,283.093h-37.304c-3.47-10.273-13.193-17.693-24.622-17.693s-21.152,7.42-24.622,17.693H52.527    c-4.58,0-8.294,3.713-8.294,8.294c0,4.58,3.713,8.294,8.294,8.294h320.397c3.47,10.273,13.193,17.693,24.622,17.693    s21.152-7.42,24.622-17.693h37.304c4.58,0,8.294-3.713,8.294-8.294C467.767,286.806,464.053,283.093,459.473,283.093z     M397.546,300.786c-5.183,0-9.4-4.217-9.4-9.4s4.217-9.4,9.4-9.4s9.4,4.216,9.4,9.4S402.729,300.786,397.546,300.786z" fill="#be9a66"/>
	</g>
</g>
<g>
	<g>
		<path d="M459.473,353.866H280.622c-3.47-10.273-13.193-17.693-24.622-17.693s-21.152,7.42-24.622,17.693H52.527    c-4.58,0-8.294,3.713-8.294,8.294c0,4.58,3.713,8.294,8.294,8.294h178.851c3.47,10.273,13.193,17.693,24.622,17.693    s21.152-7.42,24.622-17.693h178.851c4.58,0,8.294-3.713,8.294-8.294C467.767,357.579,464.053,353.866,459.473,353.866z     M256,371.559c-5.183,0-9.4-4.217-9.4-9.4s4.217-9.4,9.4-9.4s9.4,4.216,9.4,9.4S261.183,371.559,256,371.559z" fill="#be9a66"/>
	</g>
</g>
<g>
</g>
<g>
</g>
<g>
</g>
<g>
</g>
<g>
</g>
<g>
</g>
<g>
</g>
<g>
</g>
<g>
</g>
<g>
</g>
<g>
</g>
<g>
</g>
<g>
</g>
<g>
</g>
<g>
</g>
</svg>
