<?xml version="1.0" encoding="iso-8859-1"?>
<!-- Generator: Adobe Illustrator 18.0.0, SVG Export Plug-In . SVG Version: 6.00 Build 0)  -->
<!DOCTYPE svg PUBLIC "-//W3C//DTD SVG 1.1//EN" "http://www.w3.org/Graphics/SVG/1.1/DTD/svg11.dtd">
<svg xmlns="http://www.w3.org/2000/svg" xmlns:xlink="http://www.w3.org/1999/xlink" version="1.1" id="Capa_1" x="0px" y="0px" viewBox="0 0 60 60" style="enable-background:new 0 0 60 60;" xml:space="preserve" width="512px" height="512px">
<g>
	<path d="M0,0v60h60V0H0z M58,58H2V2h56V58z" fill="#be9a66"/>
	<path d="M23,55h14h2h16V43v-2V31v-2V19v-2V5H39h-2H23h-2H5v12v2v10v2v10v2v12h16H23z M37,53H23V43h14V53z M23,31h14v10H23V31z    M23,19h14v10H23V19z M53,53H39V43h14V53z M53,41H39V31h14V41z M53,29H39V19h14V29z M39,7h14v10H39V7z M23,7h14v10H23V7z M7,7h14   v10H7V7z M7,19h14v10H7V19z M7,31h14v10H7V31z M7,53V43h14v10H7z" fill="#be9a66"/>
</g>
<g>
</g>
<g>
</g>
<g>
</g>
<g>
</g>
<g>
</g>
<g>
</g>
<g>
</g>
<g>
</g>
<g>
</g>
<g>
</g>
<g>
</g>
<g>
</g>
<g>
</g>
<g>
</g>
<g>
</g>
</svg>
