<?xml version="1.0" encoding="iso-8859-1"?>
<!-- Generator: Adobe Illustrator 19.0.0, SVG Export Plug-In . SVG Version: 6.00 Build 0)  -->
<svg xmlns="http://www.w3.org/2000/svg" xmlns:xlink="http://www.w3.org/1999/xlink" version="1.1" id="Layer_1" x="0px" y="0px" viewBox="0 0 512 512" style="enable-background:new 0 0 512 512;" xml:space="preserve" width="512px" height="512px">
<g>
	<g>
		<path d="M512,256.001c0-5.797-3.476-10.938-8.855-13.1l-124.963-50.199l124.962-50.199c5.38-2.161,8.856-7.302,8.856-13.099    c0-5.797-3.476-10.939-8.855-13.1L261.262,19.138c-3.395-1.363-7.133-1.364-10.524,0L8.857,116.305    C3.476,118.466,0,123.607,0,129.405c0,5.797,3.477,10.939,8.855,13.099l124.962,50.199L8.855,242.901    C3.476,245.063,0,250.204,0,256.001s3.477,10.938,8.855,13.099l124.962,50.199L8.857,369.498C3.477,371.658,0,376.8,0,382.596    c0,5.797,3.476,10.939,8.855,13.1l241.879,97.165c1.698,0.682,3.481,1.023,5.265,1.023c1.783,0,3.565-0.341,5.262-1.022    l241.883-97.166c5.38-2.161,8.855-7.303,8.855-13.1s-3.477-10.938-8.855-13.099l-124.962-50.199L503.143,269.1    C508.523,266.939,512,261.798,512,256.001z M18.745,129.404l237.255-95.307l237.255,95.308l-237.255,95.307L18.745,129.404z     M493.255,382.598l-237.256,95.307L18.745,382.598l136.322-54.762l95.668,38.431c1.698,0.682,3.481,1.023,5.265,1.023    c1.783,0,3.565-0.341,5.261-1.022l95.67-38.432L493.255,382.598z M255.999,351.308L18.744,256.001l136.324-54.762l95.67,38.432    c1.696,0.682,3.479,1.022,5.261,1.022c1.783,0,3.565-0.341,5.262-1.022l95.67-38.432l136.324,54.762L255.999,351.308z" fill="#be9a66"/>
	</g>
</g>
<g>
</g>
<g>
</g>
<g>
</g>
<g>
</g>
<g>
</g>
<g>
</g>
<g>
</g>
<g>
</g>
<g>
</g>
<g>
</g>
<g>
</g>
<g>
</g>
<g>
</g>
<g>
</g>
<g>
</g>
</svg>
