<?xml version="1.0" encoding="iso-8859-1"?>
<!-- Generator: Adobe Illustrator 19.0.0, SVG Export Plug-In . SVG Version: 6.00 Build 0)  -->
<svg xmlns="http://www.w3.org/2000/svg" xmlns:xlink="http://www.w3.org/1999/xlink" version="1.1" id="Layer_1" x="0px" y="0px" viewBox="0 0 491.52 491.52" style="enable-background:new 0 0 491.52 491.52;" xml:space="preserve" width="512px" height="512px">
<g>
	<g>
		<path d="M71.68,0C32.155,0,0,32.155,0,71.68c0,39.525,32.155,71.68,71.68,71.68c39.525,0,71.68-32.155,71.68-71.68    C143.36,32.155,111.205,0,71.68,0z M71.68,122.88c-28.23,0-51.2-22.97-51.2-51.2c0-28.23,22.97-51.2,51.2-51.2    s51.2,22.97,51.2,51.2C122.88,99.91,99.91,122.88,71.68,122.88z" fill="#be9a66"/>
	</g>
</g>
<g>
	<g>
		<rect x="184.32" y="30.72" width="133.12" height="20.48" fill="#be9a66"/>
	</g>
</g>
<g>
	<g>
		<rect x="184.32" y="81.92" width="307.2" height="20.48" fill="#be9a66"/>
	</g>
</g>
<g>
	<g>
		<path d="M71.68,174.08C32.155,174.08,0,206.235,0,245.76c0,39.525,32.155,71.68,71.68,71.68c39.525,0,71.68-32.155,71.68-71.68    C143.36,206.235,111.205,174.08,71.68,174.08z M71.68,296.96c-28.23,0-51.2-22.97-51.2-51.2s22.97-51.2,51.2-51.2    s51.2,22.97,51.2,51.2S99.91,296.96,71.68,296.96z" fill="#be9a66"/>
	</g>
</g>
<g>
	<g>
		<rect x="184.32" y="204.8" width="133.12" height="20.48" fill="#be9a66"/>
	</g>
</g>
<g>
	<g>
		<rect x="184.32" y="256" width="307.2" height="20.48" fill="#be9a66"/>
	</g>
</g>
<g>
	<g>
		<path d="M71.68,348.16C32.155,348.16,0,380.315,0,419.84c0,39.525,32.155,71.68,71.68,71.68c39.525,0,71.68-32.155,71.68-71.68    C143.36,380.315,111.205,348.16,71.68,348.16z M71.68,471.04c-28.23,0-51.2-22.97-51.2-51.2c0-28.23,22.97-51.2,51.2-51.2    s51.2,22.97,51.2,51.2C122.88,448.07,99.91,471.04,71.68,471.04z" fill="#be9a66"/>
	</g>
</g>
<g>
	<g>
		<rect x="184.32" y="378.88" width="133.12" height="20.48" fill="#be9a66"/>
	</g>
</g>
<g>
	<g>
		<rect x="184.32" y="430.08" width="307.2" height="20.48" fill="#be9a66"/>
	</g>
</g>
<g>
</g>
<g>
</g>
<g>
</g>
<g>
</g>
<g>
</g>
<g>
</g>
<g>
</g>
<g>
</g>
<g>
</g>
<g>
</g>
<g>
</g>
<g>
</g>
<g>
</g>
<g>
</g>
<g>
</g>
</svg>
