<?xml version="1.0" encoding="iso-8859-1"?>
<!-- Generator: Adobe Illustrator 19.0.0, SVG Export Plug-In . SVG Version: 6.00 Build 0)  -->
<svg xmlns="http://www.w3.org/2000/svg" xmlns:xlink="http://www.w3.org/1999/xlink" version="1.1" id="Layer_1" x="0px" y="0px" viewBox="0 0 504.875 504.875" style="enable-background:new 0 0 504.875 504.875;" xml:space="preserve" width="512px" height="512px">
<g>
	<g>
		<path d="M504.875,60.061c0-19.803-15-35.914-33.438-35.914h-438C15,24.146,0,40.258,0,60.061v324.755    c0,19.803,15,35.913,33.438,35.913h182.625l-13.333,40h-25.792c-5.522,0-10,4.478-10,10s4.478,10,10,10h33h85h33    c5.522,0,10-4.478,10-10s-4.478-10-10-10h-25.792l-13.333-40h182.625c18.438,0,33.438-16.11,33.438-35.913V60.061z M20,60.061    c0-8.775,6.028-15.914,13.438-15.914h438c7.409,0,13.438,7.139,13.438,15.914v239.086H20V60.061z M281.063,460.729h-57.252    l13.334-40h30.584L281.063,460.729z M484.875,384.815c0,8.774-6.028,15.913-13.438,15.913h-196.5h-45h-196.5    c-7.409,0-13.438-7.139-13.438-15.913v-65.669h464.875V384.815z" fill="#be9a66"/>
		<path d="M252.438,387.559c15.517,0,28.14-12.623,28.14-28.14s-12.623-28.14-28.14-28.14s-28.14,12.623-28.14,28.14    S236.921,387.559,252.438,387.559z M252.438,351.279c4.488,0,8.14,3.651,8.14,8.14s-3.651,8.14-8.14,8.14s-8.14-3.651-8.14-8.14    S247.949,351.279,252.438,351.279z" fill="#be9a66"/>
		<path d="M48.871,138.438c-5.522,0-10,4.478-10,10v122.356c0,5.522,4.478,10,10,10s10-4.478,10-10V148.438    C58.871,142.915,54.394,138.438,48.871,138.438z" fill="#be9a66"/>
		<path d="M48.871,62.438c-5.522,0-10,4.478-10,10v39.469c0,5.522,4.478,10,10,10s10-4.478,10-10V72.438    C58.871,66.915,54.394,62.438,48.871,62.438z" fill="#be9a66"/>
	</g>
</g>
<g>
</g>
<g>
</g>
<g>
</g>
<g>
</g>
<g>
</g>
<g>
</g>
<g>
</g>
<g>
</g>
<g>
</g>
<g>
</g>
<g>
</g>
<g>
</g>
<g>
</g>
<g>
</g>
<g>
</g>
</svg>
