<?xml version="1.0" encoding="iso-8859-1"?>
<!-- Generator: Adobe Illustrator 19.0.0, SVG Export Plug-In . SVG Version: 6.00 Build 0)  -->
<svg xmlns="http://www.w3.org/2000/svg" xmlns:xlink="http://www.w3.org/1999/xlink" version="1.1" id="Layer_1" x="0px" y="0px" viewBox="0 0 512 512" style="enable-background:new 0 0 512 512;" xml:space="preserve" width="512px" height="512px">
<g>
	<g>
		<path d="M290.133,221.867H8.678c-4.71,0-8.533,3.823-8.533,8.533v273.067c0,4.71,3.823,8.533,8.533,8.533h281.455    c4.71,0,8.533-3.823,8.533-8.533V230.4C298.667,225.69,294.844,221.867,290.133,221.867z M281.6,494.933H17.212v-256H281.6    V494.933z" fill="#be9a66"/>
	</g>
</g>
<g>
	<g>
		<path d="M509.5,2.5c-1.596-1.604-3.763-2.5-6.033-2.5L14.234,0.145c-6.579,0-14.046,0-14.089,8.525L0,187.725    c0,2.27,0.896,4.437,2.492,6.042c1.604,1.604,3.78,2.5,6.042,2.5h315.733v307.2c0,4.71,3.823,8.533,8.533,8.533h170.667    c4.719,0,8.533-3.823,8.533-8.533V8.533C512,6.272,511.104,4.096,509.5,2.5z M494.933,494.933h-153.6v-307.2    c0-4.71-3.823-8.533-8.533-8.533H17.075l0.128-161.997l477.73-0.137V494.933z" fill="#be9a66"/>
	</g>
</g>
<g>
</g>
<g>
</g>
<g>
</g>
<g>
</g>
<g>
</g>
<g>
</g>
<g>
</g>
<g>
</g>
<g>
</g>
<g>
</g>
<g>
</g>
<g>
</g>
<g>
</g>
<g>
</g>
<g>
</g>
</svg>
